HIERARCHY
ROOT Hips
{
	OFFSET 0.00000 0.00000 0.00000
	CHANNELS 6 Xposition Yposition Zposition Yrotation Zrotation Xrotation 
	JOINT Lumbar
	{
		OFFSET 0 0 0
		CHANNELS 3 Zrotation Xrotation Yrotation
		JOINT Neck
		{
			OFFSET 0.00 0.2701 0.00
			CHANNELS 3 Zrotation Xrotation Yrotation
			End Site
			{
				OFFSET 0.00 0.1379 0.00
			}
		}
		JOINT RightShoulder
		{
			OFFSET 0.0119 0.2289 0.1181
			CHANNELS 3 Zrotation Xrotation Yrotation
			JOINT RightElbow
			{
				OFFSET 0.00 -0.1475 0.00
				CHANNELS 2 Zrotation Yrotation
				JOINT RightWrist
				{
					OFFSET 0.00 -0.1605 0.00
					CHANNELS 2 Zrotation Xrotation
					End Site
					{
						OFFSET 0.0040 -0.1068 0.0006
					}
				}
			}
		}
		JOINT LeftShoulder
		{
			OFFSET 0.0119 0.2289 -0.1181
			CHANNELS 3 Zrotation Xrotation Yrotation
			JOINT LeftElbow
			{
				OFFSET 0.00 -0.1475 0.00
				CHANNELS 2 Zrotation Yrotation
				JOINT LeftWrist
				{
					OFFSET 0.00 -0.1605 0.00
					CHANNELS 2 Zrotation Xrotation
					End Site
					{
						OFFSET 0.0040 -0.1068 -0.0006
					}
				}
			}
		}
	}
	JOINT RightHip
	{
		OFFSET 0.0316 -0.0424 0.0458
		CHANNELS 3 Zrotation Xrotation Yrotation
		JOINT RightKnee
		{
			OFFSET 0.00 -0.2438 0.00
			CHANNELS 1 Zrotation
			JOINT RightAnkle
			{
				OFFSET 0.00 -0.2449 0.00
				CHANNELS 3 Zrotation Xrotation Yrotation
				End Site
				{
					OFFSET 0.1237 -0.0542 0.0051
				}
			}
		}
	}
	JOINT LeftHip
	{
		OFFSET 0.0316 -0.0424 -0.0458
		CHANNELS 3 Zrotation Xrotation Yrotation
		JOINT LeftKnee
		{
			OFFSET 0.00 -0.2438 0.00
			CHANNELS 1 Zrotation
			JOINT LeftAnkle
			{
				OFFSET 0.00 -0.2449 0.00
				CHANNELS 3 Zrotation Xrotation Yrotation
				End Site
				{
					OFFSET 0.1237 -0.0542 -0.0051
				}
			}
		}
	}
}
MOTION
Frames: 13
Frame Time: 0.02
-1.2208 -0.07614 -0.68248 149.07377 -68.64825 25.16156 -25.23978 12.68659 1.25143 -37.29132 -4.47139 -2.11993 108.04632 3.04863 29.54939 11.40004 71.15651 -12.06962 -1.92409 86.2801 23.3789 -55.24135 37.92189 -81.86045 -10.79461 2.08721 97.50892 -20.75083 16.37751 -63.71628 -6.1033 -2.90597 -3.62163 85.85494 -0.17051 23.69479 -61.83585 -6.51789 3.8371 4.09355
-1.22101 -0.07568 -0.68283 148.79793 -68.66508 24.69298 -25.55779 12.47537 0.82981 -39.92559 -5.06328 -2.11993 107.47771 1.87707 31.69352 12.33342 71.56174 -12.26902 -1.63962 86.26039 23.64217 -54.92751 38.35904 -81.8352 -11.0778 1.68167 97.19875 -20.7228 15.93297 -63.44996 -6.09755 -2.89436 -3.61578 85.72791 -0.10286 23.39888 -61.63523 -6.53285 3.84555 4.098
-1.22127 -0.07504 -0.68324 148.55011 -68.66659 24.25718 -26.02251 12.25587 0.54801 -42.38267 -5.56185 -2.11993 106.71506 0.63493 34.59138 13.54754 72.24182 -12.4581 -1.24591 86.46637 23.65419 -54.54877 38.69746 -81.7834 -11.31143 1.29402 96.85118 -20.72911 15.45991 -63.11597 -6.09518 -2.87913 -3.60823 85.53963 -0.03618 23.15588 -61.35415 -6.54291 3.84776 4.09894
-1.22152 -0.0745 -0.68362 148.29481 -68.67693 23.80986 -26.41416 12.04512 0.20672 -44.87053 -6.09374 -2.11993 106.0374 -0.54941 37.06456 14.60841 72.78034 -12.6481 -0.91338 86.57097 23.7792 -54.20982 39.07369 -81.74381 -11.56406 0.91004 96.52488 -20.71697 15.00763 -62.81849 -6.09142 -2.86636 -3.60186 85.38242 0.0383 22.9023 -61.11703 -6.5537 3.85172 4.10086
-1.22174 -0.07391 -0.68403 148.01194 -68.681 23.34009 -26.83203 11.81382 -0.15909 -47.58618 -6.67008 -2.11993 105.35648 -1.84097 39.90956 15.78506 73.38213 -12.85107 -0.52962 86.67326 23.91806 -53.82687 39.47979 -81.7044 -11.83451 0.47313 96.17844 -20.71369 14.51851 -62.49636 -6.08697 -2.85029 -3.59386 85.21301 0.08419 22.58652 -60.85001 -6.57097 3.86036 4.10542
-1.22202 -0.07337 -0.68438 147.79476 -68.69381 22.928 -27.2301 11.62313 -0.43774 -49.77765 -7.12941 -2.11993 104.64321 -2.92446 42.14947 16.78484 73.91791 -13.02566 -0.22781 86.83292 23.96534 -53.52013 39.79971 -81.6582 -12.05457 0.15092 95.86627 -20.70144 14.10104 -62.2101 -6.08478 -2.84016 -3.58881 85.05435 0.18769 22.4138 -60.62622 -6.57363 3.85783 4.1037
-1.2224 -0.073 -0.68457 147.75791 -68.73515 22.66762 -27.54159 11.54702 -0.51001 -50.57394 -7.2874 -2.11993 103.88218 -3.44125 42.53396 17.22152 74.23271 -13.12491 -0.17641 87.09626 23.817 -53.44297 39.91153 -81.59719 -12.15221 0.15371 95.65304 -20.65422 13.8859 -62.0336 -6.08823 -2.84764 -3.59248 84.93497 0.4597 22.63676 -60.53443 -6.53576 3.82476 4.08475
-1.22283 -0.07269 -0.6847 147.78602 -68.78548 22.46529 -27.82744 11.51198 -0.49823 -50.84444 -7.33017 -2.11993 103.0989 -3.74209 42.28005 17.47045 74.46844 -13.19629 -0.2121 87.40926 23.58467 -53.4446 39.93889 -81.53065 -12.1997 0.26978 95.47668 -20.59747 13.74496 -61.89648 -6.09382 -2.86115 -3.59914 84.82927 0.78765 23.00011 -60.48985 -6.4836 3.78087 4.05973
-1.22324 -0.07236 -0.68485 147.78136 -68.83105 22.23719 -28.12266 11.45771 -0.52392 -51.34781 -7.42549 -2.11993 102.33177 -4.12582 42.31481 17.80815 74.72204 -13.28059 -0.20987 87.69861 23.39223 -53.40771 40.00144 -81.46807 -12.26666 0.32603 95.28695 -20.54676 13.57203 -61.74528 -6.09827 -2.87165 -3.6043 84.72057 1.08392 23.29145 -60.42809 -6.43884 3.74269 4.03795
-1.22364 -0.07198 -0.68503 147.79101 -68.87894 22.0073 -28.43289 11.40529 -0.54829 -51.87222 -7.51685 -2.11993 101.53134 -4.5762 42.38205 18.14138 75.05805 -13.3635 -0.19661 87.9997 23.18386 -53.37856 40.07466 -81.39818 -12.34564 0.41716 95.08187 -20.49023 13.39015 -61.57607 -6.10352 -2.88312 -3.60997 84.59618 1.40718 23.61989 -60.34586 -6.39 3.7009 4.01395
-1.22407 -0.07173 -0.68513 147.78626 -68.92433 21.79479 -28.70349 11.3592 -0.55679 -52.22861 -7.59034 -2.11993 100.79851 -4.83574 42.22062 18.43546 75.20421 -13.44268 -0.22868 88.28615 22.99205 -53.35464 40.10609 -81.34288 -12.38872 0.4634 94.91763 -20.4428 13.24561 -61.45405 -6.10763 -2.89412 -3.61536 84.50853 1.6868 23.90283 -60.31807 -6.34642 3.6642 3.99324
-1.22457 -0.07185 -0.68501 147.72301 -68.96074 21.61361 -28.87329 11.31765 -0.54686 -52.26095 -7.64415 -2.11993 100.25048 -4.61858 41.57824 18.66729 74.81204 -13.51915 -0.36414 88.51035 22.86704 -53.30959 40.05012 -81.32682 -12.34182 0.35093 94.86066 -20.42532 13.18026 -61.45769 -6.10756 -2.90181 -3.61894 84.5189 1.83852 24.03365 -60.4335 -6.32024 3.64356 3.98277
-1.22509 -0.0721 -0.68481 147.6432 -68.99441 21.44794 -29.0029 11.28158 -0.52417 -52.13964 -7.68527 -2.11993 99.77301 -4.21654 40.72749 18.86476 74.23853 -13.59233 -0.54354 88.71864 22.76299 -53.26942 39.9543 -81.32653 -12.26164 0.19204 94.84304 -20.4166 13.15104 -61.50689 -6.10637 -2.90894 -3.62223 84.56609 1.94349 24.11233 -60.60171 -6.29998 3.62854 3.97588
